<?xml version="1.0" standalone="no"?><!DOCTYPE svg PUBLIC "-//W3C//DTD SVG 1.1//EN" "http://www.w3.org/Graphics/SVG/1.1/DTD/svg11.dtd"><svg t="1539746047610" class="icon" style="" viewBox="0 0 1024 1024" version="1.1" xmlns="http://www.w3.org/2000/svg" p-id="2664" xmlns:xlink="http://www.w3.org/1999/xlink" width="200" height="200"><defs><style type="text/css"></style></defs><path d="M510.903224 1021.805716a509.147065 509.147065 0 0 1-361.325457-149.650179A509.147065 509.147065 0 0 1 0.000731 510.903224a509.220208 509.220208 0 0 1 149.650179-361.325457A509.147065 509.147065 0 0 1 510.976366 0.000731a509.147065 509.147065 0 0 1 361.325457 149.650179 509.147065 509.147065 0 0 1 149.503893 361.325456 509.073922 509.073922 0 0 1-149.650179 361.325457 509.147065 509.147065 0 0 1-361.252313 149.503893zM208.018869 168.302325A453.924247 453.924247 0 0 1 510.903224 53.614407c122.148484 0 236.982688 47.542823 323.291197 133.997619a454.216818 454.216818 0 0 1 133.997619 323.291198 453.924247 453.924247 0 0 1-114.687918 302.884355L208.018869 168.302325z m-39.350829 39.35083A453.924247 453.924247 0 0 0 53.68755 510.903224c0 122.148484 47.542823 236.982688 133.851333 323.291197a454.216818 454.216818 0 0 0 323.364341 133.997619 453.924247 453.924247 0 0 0 303.250069-115.053632L168.66804 207.726297z" fill="#007AFF" p-id="2665"></path></svg>