<?xml version="1.0" standalone="no"?><!DOCTYPE svg PUBLIC "-//W3C//DTD SVG 1.1//EN" "http://www.w3.org/Graphics/SVG/1.1/DTD/svg11.dtd"><svg t="1539225503890" class="icon" style="" viewBox="0 0 1024 1024" version="1.1" xmlns="http://www.w3.org/2000/svg" p-id="3568" xmlns:xlink="http://www.w3.org/1999/xlink" width="200" height="200"><defs><style type="text/css"></style></defs><path d="M512 0C233.60000000000002 0 6.400000000000034 227.2 6.400000000000034 505.6c0 278.4 227.2 505.59999999999997 505.59999999999997 505.59999999999997 278.4 0 505.59999999999997-227.2 505.59999999999997-505.59999999999997C1017.5999999999999 227.2 790.4 0 512 0z m-70.4 665.6c0 16-12.8 32-32 32s-32-12.8-32-32V329.6c0-16 12.8-32 32-32s32 12.8 32 32v336z m185.6 0c0 16-12.8 32-32 32s-32-12.8-32-32V329.6c0-16 12.8-32 32-32s32 12.8 32 32v336z" fill="#fbb435" p-id="3569"></path></svg>