<?xml version="1.0" standalone="no"?><!DOCTYPE svg PUBLIC "-//W3C//DTD SVG 1.1//EN" "http://www.w3.org/Graphics/SVG/1.1/DTD/svg11.dtd"><svg t="1538192517593" class="icon" style="" viewBox="0 0 1024 1024" version="1.1" xmlns="http://www.w3.org/2000/svg" p-id="7091" xmlns:xlink="http://www.w3.org/1999/xlink" width="200" height="200"><defs><style type="text/css"></style></defs><path d="M29.257143 0h965.485714v658.285714c0 40.96-26.331429 92.16-58.514286 115.565715L649.508571 981.577143c-64.365714 46.811429-172.617143 49.737143-239.908571 4.388571L90.697143 772.388571C57.051429 748.982857 29.257143 699.245714 29.257143 658.285714V0z" fill="#30BE71" p-id="7092"></path><path d="M232.594286 396.434286c-10.24 13.165714-21.942857 26.331429-33.645715 39.497143l-8.777142-32.182858c33.645714-40.96 59.977143-86.308571 76.068571-140.434285l29.257143 14.628571c-8.777143 24.868571-19.017143 48.274286-30.72 70.217143V585.142857h-32.182857V396.434286zM291.108571 340.845714h65.828572V263.314286h30.72V340.845714H497.371429v30.72h-65.828572v156.525715c0 4.388571 2.925714 7.314286 7.314286 7.314285h26.331428c2.925714 0 5.851429-1.462857 7.314286-5.851428 2.925714-4.388571 4.388571-20.48 4.388572-48.274286l27.794285 8.777143c-2.925714 36.571429-7.314286 57.051429-11.702857 64.365714-5.851429 5.851429-13.165714 10.24-21.942857 10.24h-42.422857c-20.48 0-29.257143-10.24-29.257143-30.72V371.565714h-14.628571c-7.314286 87.771429-35.108571 153.6-81.92 197.485715l-23.405715-20.48c42.422857-39.497143 67.291429-98.011429 74.605715-177.005715h-62.902858v-30.72z" fill="#FFFFFF" p-id="7093"></path><path d="M421.302857 277.942857c20.48 13.165714 39.497143 26.331429 54.125714 40.96L453.485714 339.382857c-13.165714-13.165714-30.72-27.794286-52.662857-42.422857l20.48-19.017143zM601.234286 340.845714h70.217143v55.588572h-133.12v30.72h87.771428c-2.925714 30.72-10.24 54.125714-21.942857 68.754285-13.165714 17.554286-36.571429 33.645714-70.217143 46.811429L555.885714 570.514286c36.571429-16.091429 62.902857-36.571429 77.531429-58.514286 13.165714-19.017143 20.48-46.811429 23.405714-84.845714h54.125714v93.622857c0 29.257143 11.702857 43.885714 36.571429 43.885714h45.348571c10.24 0 19.017143-4.388571 24.868572-10.24 5.851429-7.314286 10.24-29.257143 13.165714-67.291428l-29.257143-10.24c-1.462857 29.257143-2.925714 46.811429-7.314285 51.2-2.925714 4.388571-7.314286 5.851429-10.24 5.851428h-29.257143c-10.24 0-14.628571-7.314286-14.628572-19.017143v-87.771428h87.771429v-30.72H702.171429v-55.588572h105.325714v-30.72H702.171429V263.314286h-30.72v46.811428H614.4c4.388571-11.702857 8.777143-23.405714 11.702857-36.571428l-30.72-7.314286c-10.24 35.108571-27.794286 68.754286-51.2 99.474286l30.72 19.017143c8.777143-11.702857 17.554286-27.794286 26.331429-43.885715z" fill="#FFFFFF" p-id="7094"></path></svg>