<?xml version="1.0" standalone="no"?><!DOCTYPE svg PUBLIC "-//W3C//DTD SVG 1.1//EN" "http://www.w3.org/Graphics/SVG/1.1/DTD/svg11.dtd"><svg t="1539679765352" class="icon" style="" viewBox="0 0 1042 1024" version="1.1" xmlns="http://www.w3.org/2000/svg" p-id="6500" xmlns:xlink="http://www.w3.org/1999/xlink" width="203.515625" height="200"><defs><style type="text/css"></style></defs><path d="M348.474157 471.923031L93.295157 192.782991c-16.055113-17.14978-48.28697-22.258225-71.274973-8.514075s-29.920893 36.002376-11.433187 54.85497l233.893812 257.489964v0.364889l-231.582848 254.205962c-16.055113 17.14978-11.433187 42.813636 11.433186 54.854971 22.988003 12.041335 55.21986 8.514075 71.274974-10.21689L348.474157 518.142297c11.433187-13.62252 11.433187-32.475116 0-46.219266z" fill="#2F8BE6" p-id="6501"></path><path d="M690.861614 471.923031L435.804244 192.782991c-16.055113-17.14978-48.28697-22.258225-71.274973-8.514075-22.988003 12.041335-27.60993 37.705191-11.433187 54.85497l234.015441 257.611593v0.24326L355.407047 751.184701c-16.055113 17.14978-11.433187 42.813636 11.433187 54.854971 22.988003 12.041335 55.21986 8.514075 71.274973-10.21689L690.861614 518.142297c11.554816-13.62252 11.554816-32.475116 0-46.219266z" fill="#2F8BE6" p-id="6502"></path><path d="M1033.370701 471.923031L778.313331 192.782991c-16.055113-17.14978-48.28697-22.258225-71.274974-8.514075-22.988003 12.041335-27.60993 37.705191-11.433187 54.85497l233.772182 257.368334v0.608148L697.794504 751.063072c-16.055113 17.14978-11.433187 42.813636 11.433187 54.854971 22.988003 12.041335 55.21986 8.514075 71.274973-10.216891L1033.370701 518.142297c11.554816-13.62252 11.554816-32.475116 0-46.219266z" fill="#2F8BE6" p-id="6503"></path></svg>