<?xml version="1.0" standalone="no"?><!DOCTYPE svg PUBLIC "-//W3C//DTD SVG 1.1//EN" "http://www.w3.org/Graphics/SVG/1.1/DTD/svg11.dtd"><svg t="1539226094453" class="icon" style="" viewBox="0 0 1024 1024" version="1.1" xmlns="http://www.w3.org/2000/svg" p-id="6492" xmlns:xlink="http://www.w3.org/1999/xlink" width="200" height="200"><defs><style type="text/css"></style></defs><path d="M804.11733333 812.2112l49.89546667-56.8384 66.368-21.6736v-76.80853333l-96.0096-108.81066667-51.20533333-46.23573333 48.00533333-94.5792-16.00213333-131.2128-73.60746667-60.8064-32.0032-16.00106667s-307.23093333 81.67146667-339.23413333 336.03306667c-52.25813333 216.58773333-83.20746667 208.02133333-44.80426667 278.42773333 54.40533333 16.00213333 183.4432 26.82453333 183.4432 26.82453334l274.20266667-21.49013334" fill="#F4D396" p-id="6493"></path><path d="M946.19733333 755.49333334l-92.16853333-0.04586667-0.01493333-0.07466667c-0.8352 0.0832-1.6768 0.12906667-2.5248 0.12906667-13.98933333-0.14186667-25.27253333-11.47946667-25.34826667-25.4624s11.088-25.44213333 25.07306667-25.73333333h40.39573333c-16.0416-81.56266667-66.29333333-136.5664-137.24586667-169.17866667a34.55146667 34.55146667 0 0 1-22.9184-28.2496 34.56213333 34.56213333 0 0 1 15.06666667-33.11253333l0.01706667-0.13333334a147.104 147.104 0 0 0 52.0544-112.3744c0-81.5296-66.28373333-147.6224-148.0544-147.6224-1.2192 0-2.43733333 0.0128-3.65013334 0.04586667l-0.1024-0.06933333c-0.3168 0.01173333-0.62933333 0.02346667-0.94826666 0.02346666-14.1376 0-25.6-11.4624-25.6-25.6s11.4624-25.6 25.6-25.6c0.4672 0 0.92906667 0.01813333 1.39413333 0.0416-0.08106667-0.09173333-0.14613333-0.18773333-0.22933333-0.2784 1.16266667-0.01706667 2.31893333-0.04586667 3.48586666-0.04586666 110.05013333 0 199.26293333 89.09973333 199.26293334 199.008a198.29653333 198.29653333 0 0 1-59.81866667 142.14613333c90.93653333 48.4 152.67413333 143.03253333 156.27413333 252.18666667zM708.9408 446.49386667a198.27306667 198.27306667 0 0 1-59.8144 142.14186667c90.93333333 48.40426667 153.6832 142.67946667 157.28746667 251.89546666H212.9504c3.60426667-109.22133333 66.35413333-203.4912 157.28746667-251.89546666a198.26666667 198.26666667 0 0 1-59.8208-142.14186667c0-109.90826667 89.21173333-199.01226667 199.2608-199.01226667 110.05013333 0 199.26293333 89.09973333 199.26293333 199.01226667zM268.55466667 789.63946667h482.25493333c-16.28586667-82.8-67.808-138.2496-140.4768-170.66666667-29.37066667 18.1504-62.2912 26.52906667-100.65386667 26.52906667-38.35733333 0-72.05333333-8.37866667-101.424-26.52906667-72.66773333 32.42133333-123.4176 87.86666667-139.70026666 170.66666667z m241.17866666-490.67093333c-81.7664 0-148.0544 66.09173333-148.0544 147.6224 0 81.52853333 66.2848 147.62026667 148.0544 147.62026666 81.7696 0 148.05546667-66.09173333 148.05546667-147.62026666 0-81.53066667-66.29013333-147.6224-148.05546667-147.6224z m-136.9664-85.06666667c-0.3168 0-0.6336-0.0128-0.94613333-0.02346667l-0.10453333 0.06933334c-1.216-0.0288-2.43306667-0.04586667-3.64906667-0.05013334-81.76746667 0-148.0544 66.06293333-148.0544 147.54986667a146.97813333 146.97813333 0 0 0 52.0544 112.32106667l0.016 0.13333333a34.528 34.528 0 0 1 15.0624 33.09653333 34.53866667 34.53866667 0 0 1-22.91093333 28.23786667c-70.95573333 32.59626667-121.20853333 87.5712-137.24586667 169.09546667h40.39573333c14.13333333 0.07466667 25.52533333 11.5872 25.4496 25.72053333-0.07466667 14.12906667-11.59146667 25.52533333-25.72053333 25.4496-0.8544 0-1.696-0.04586667-2.5248-0.12906667l-0.0224 0.07466667-92.1664 0.04586667c3.60426667-109.09973333 65.34186667-203.6832 156.2752-252.0672a198.12373333 198.12373333 0 0 1-59.81653333-142.07146667c0-109.85813333 89.21173333-198.912 199.2576-198.912 1.16693333 0 2.32533333 0.02453333 3.488 0.04586667-0.07893333 0.09173333-0.1504 0.18346667-0.22933334 0.2752 0.46293333-0.0256 0.9248-0.03733333 1.392-0.03733334a25.5872 25.5872 0 1 1 0 51.17546667z m0 0" fill="" p-id="6494"></path></svg>