<?xml version="1.0" standalone="no"?><!DOCTYPE svg PUBLIC "-//W3C//DTD SVG 1.1//EN" "http://www.w3.org/Graphics/SVG/1.1/DTD/svg11.dtd"><svg t="1539679443360" class="icon" style="" viewBox="0 0 1024 1024" version="1.1" xmlns="http://www.w3.org/2000/svg" p-id="3253" xmlns:xlink="http://www.w3.org/1999/xlink" width="200" height="200"><defs><style type="text/css"></style></defs><path d="M511.9488 0C229.2224 0-0.0512 229.2224-0.0512 512-0.0512 794.7776 229.2224 1024 511.9488 1024 794.7264 1024 1023.9488 794.7776 1023.9488 512 1023.9488 229.2224 794.7264 0 511.9488 0ZM751.7696 679.424C771.84 699.4432 771.84 731.8528 751.7696 751.8208 731.8016 771.84 699.392 771.84 679.424 751.8208L511.9488 584.3968 344.5248 751.8208C324.5568 771.84 292.096 771.84 272.128 751.8208 252.16 731.8528 252.16 699.4432 272.128 679.424L439.552 512 272.128 344.576C252.16 324.5568 252.16 292.1472 272.128 272.1792 292.096 252.16 324.5568 252.16 344.5248 272.1792L511.9488 439.6032 679.424 272.1792C699.392 252.16 731.8016 252.16 751.7696 272.1792 771.84 292.1472 771.84 324.5568 751.7696 344.576L584.3968 512 751.7696 679.424Z" fill="#e94b2f" p-id="3254"></path></svg>